#!OML:ASF E:\motion texture\Top Level 1\Subject 1\Session 1\male.ASF
:FULLY-SPECIFIED
:DEGREES
638
root -39.6773 17.9487 3.18275 1359.21 -86.19 -1361.59
lowerback 4.0488 -3.58271 -3.87676
upperback -1.94619 -4.96632 1.22284
thorax -3.84289 -2.35579 3.77777
lowerneck -21.4264 -1.13286 -4.08538
upperneck 19.3283 -1.20653 3.75973
head 9.7069 -0.444632 1.81284
rclavicle 3.46879e-014 7.15625e-015
rhumerus -59.7836 -0.493971 -72.9542
rradius 48.8629
rwrist -0.270533
rhand -11.5979 -6.93761
rfingers 7.12502
rthumb 14.4445 -36.4149
lclavicle 3.46879e-014 7.15625e-015
lhumerus -13.7061 -11.1932 89.4399
lradius 68.2931
lwrist 7.2507
lhand -11.6036 10.1144
lfingers 7.12502
lthumb 14.4389 39.5921
rfemur -69.0468 -11.9545 18.2323
rtibia 68.5823
rfoot 916.29 2.50441
rtoes 18.1547
lfemur -2.09006 -5.64553 -28.7858
ltibia 22.6658
lfoot 1429.24 -3.56307
ltoes 2.13839
639
root -39.828 17.9738 3.1701 1360.51 -86.1774 -1362.87
lowerback 4.11794 -3.68845 -3.86924
upperback -1.9567 -5.1074 1.29701
thorax -3.87408 -2.42431 3.86423
lowerneck -21.4581 -1.07211 -4.04829
upperneck 19.3114 -1.11703 3.69851
head 9.70201 -0.406937 1.79803
rclavicle 3.22031e-014 -2.06736e-014
rhumerus -60.7253 -0.475438 -72.2443
rradius 48.9841
rwrist -0.429212
rhand -11.4947 -6.99767
rfingers 7.12502
rthumb 14.5439 -36.4678
lclavicle 3.22031e-014 -2.06736e-014
lhumerus -12.5685 -11.3667 88.7481
lradius 68.9828
lwrist 6.97664
lhand -11.497 9.95599
lfingers 7.12502
lthumb 14.5416 39.4263
rfemur -71.5463 -11.6503 18.4941
rtibia 69.1577
rfoot 916.461 2.27867
rtoes 18.5027
lfemur -1.29994 -5.89102 -28.8631
ltibia 22.1888
lfoot 1429.22 -3.36268
ltoes 1.7007
640
root -39.9791 17.9976 3.15669 1361.32 -86.2024 -1363.65
lowerback 4.19376 -3.77784 -3.83488
upperback -1.96473 -5.22508 1.37617
thorax -3.91013 -2.48174 3.94027
lowerneck -21.5031 -1.01908 -4.01858
upperneck 19.2962 -1.04035 3.6581
head 9.70095 -0.373144 1.78999
rclavicle -3.87133e-014 -1.74931e-014
rhumerus -61.5958 -0.427434 -71.5893
rradius 49.0844
rwrist -0.547403
rhand -11.4235 -7.03504
rfingers 7.12502
rthumb 14.6125 -36.5002
lclavicle -3.87133e-014 -1.74931e-014
lhumerus -11.4546 -11.4956 88.0502
lradius 69.5812
lwrist 6.60959
lhand -11.3725 9.79407
lfingers 7.12502
lthumb 14.6617 39.2557
rfemur -73.8614 -11.2836 18.7373
rtibia 69.9553
rfoot 916.646 2.03646
rtoes 18.847
lfemur -0.521536 -6.11556 -28.8965
ltibia 21.7382
lfoot 1429.19 -3.15006
ltoes 1.1963
641
root -40.1303 18.0197 3.14272 1361.81 -86.2563 -1364.13
lowerback 4.29152 -3.85445 -3.78165
upperback -1.96661 -5.32505 1.45764
thorax -3.95504 -2.53063 4.00897
lowerneck -21.5408 -0.972299 -4.00392
upperneck 19.2632 -0.974582 3.64841
head 9.69304 -0.341823 1.79347
rclavicle 3.61788e-014 -1.19271e-014
rhumerus -62.3905 -0.35125 -70.9908
rradius 49.1553
rwrist -0.608369
rhand -11.3843 -7.02392
rfingers 7.12502
rthumb 14.6502 -36.4864
lclavicle 3.61788e-014 -1.19271e-014
lhumerus -10.3773 -11.5833 87.3588
lradius 70.1023
lwrist 6.20682
lhand -11.234 9.64084
lfingers 7.12502
lthumb 14.795 39.0927
rfemur -75.9646 -10.8843 18.9535
rtibia 70.956
rfoot 916.82 1.767
rtoes 19.1505
lfemur 0.254917 -6.32142 -28.8969
ltibia 21.3224
lfoot 1429.15 -2.94148
ltoes 0.643204
642
root -40.2802 18.0399 3.12846 1362.09 -86.3442 -1364.43
lowerback 4.41324 -3.91966 -3.70271
upperback -1.95278 -5.40852 1.5419
thorax -4.00057 -2.57215 4.06682
lowerneck -21.6057 -0.937357 -3.97575
upperneck 19.2314 -0.926114 3.62929
head 9.69108 -0.318295 1.78903
rclavicle 1.4561e-014 -1.90833e-014
rhumerus -63.093 -0.255391 -70.4543
rradius 49.1992
rwrist -0.607789
rhand -11.3584 -6.97842
rfingers 7.12502
rthumb 14.6752 -36.4391
lclavicle 1.4561e-014 -1.90833e-014
lhumerus -9.33641 -11.6311 86.683
lradius 70.5651
lwrist 5.82447
lhand -11.1029 9.48724
lfingers 7.12502
lthumb 14.9213 38.9298
rfemur -77.8472 -10.4679 19.1559
rtibia 72.1353
rfoot 916.979 1.46045
rtoes 19.3738
lfemur 1.01708 -6.50114 -28.8538
ltibia 20.96
lfoot 1429.12 -2.75088
ltoes 0.0380342
643
root -40.4304 18.0576 3.11347 1362.16 -86.4509 -1364.54
lowerback 4.55983 -3.9764 -3.61789
upperback -1.92959 -5.4808 1.62483
thorax -4.05207 -2.60822 4.1213
lowerneck -21.6659 -0.90651 -3.94307
upperneck 19.1831 -0.886248 3.61754
head 9.68288 -0.297448 1.78502
rclavicle -5.61567e-015 8.74653e-015
rhumerus -63.7155 -0.134238 -69.9846
rradius 49.2151
rwrist -0.558385
rhand -11.311 -6.93345
rfingers 7.12502
rthumb 14.7209 -36.3908
lclavicle -5.61567e-015 8.74653e-015
lhumerus -8.36276 -11.6427 86.031
lradius 70.9884
lwrist 5.51954
lhand -10.9734 9.35857
lfingers 7.12502
lthumb 15.0461 38.7918
rfemur -79.5054 -10.0494 19.3355
rtibia 73.4602
rfoot 917.113 1.10154
rtoes 19.486
lfemur 1.77435 -6.64912 -28.7826
ltibia 20.6482
lfoot 1429.1 -2.59617
ltoes -0.597959
644
root -40.58 18.0724 3.09782 1362.03 -86.5697 -1364.46
lowerback 4.71955 -4.02493 -3.5315
upperback -1.89593 -5.54209 1.70378
thorax -4.1016 -2.63913 4.17099
lowerneck -21.7217 -0.881145 -3.91088
upperneck 19.1111 -0.856326 3.6188
head 9.666 -0.279534 1.78398
rclavicle 3.37934e-015 -6.36111e-015
rhumerus -64.2479 -0.00109393 -69.5834
rradius 49.2072
rwrist -0.473995
rhand -11.2431 -6.89742
rfingers 7.12502
rthumb 14.7863 -36.3499
lclavicle 3.37934e-015 -6.36111e-015
lhumerus -7.46024 -11.6242 85.4081
lradius 71.3916
lwrist 5.32406
lhand -10.8485 9.25168
lfingers 7.12502
lthumb 15.1665 38.6759
rfemur -80.95 -9.63657 19.4958
rtibia 74.9074
rfoot 917.22 0.675202
rtoes 19.4323
lfemur 2.49754 -6.76254 -28.6839
ltibia 20.4063
lfoot 1429.08 -2.49226
ltoes -1.24714
645
root -40.7293 18.0843 3.08152 1361.81 -86.6791 -1364.28
lowerback 4.87939 -4.0704 -3.4632
upperback -1.85464 -5.60039 1.77394
thorax -4.14273 -2.66852 4.22128
lowerneck -21.78 -0.858262 -3.87161
upperneck 19.0206 -0.832297 3.62373
head 9.64331 -0.2632 1.78203
rclavicle -1.5207e-014 -1.43125e-014
rhumerus -64.687 0.144885 -69.258
rradius 49.1765
rwrist -0.384806
rhand -11.1837 -6.85113
rfingers 7.12502
rthumb 14.8435 -36.2994
lclavicle -1.5207e-014 -1.43125e-014
lhumerus -6.63495 -11.575 84.8164
lradius 71.7859
lwrist 5.24366
lhand -10.7242 9.17531
lfingers 7.12502
lthumb 15.2862 38.5904
rfemur -82.1926 -9.24981 19.6226
rtibia 76.4555
rfoot 917.313 0.160015
rtoes 19.2066
lfemur 3.17137 -6.84458 -28.5783
ltibia 20.2389
lfoot 1429.06 -2.45597
ltoes -1.92324
646
root -40.8785 18.0932 3.06456 1361.45 -86.7692 -1363.96
lowerback 5.02637 -4.11103 -3.41921
upperback -1.81618 -5.6537 1.83199
thorax -4.17892 -2.69502 4.27146
lowerneck -21.8177 -0.838919 -3.83781
upperneck 18.9087 -0.815805 3.64607
head 9.60981 -0.248814 1.7857
rclavicle 1.10822e-014 7.95139e-015
rhumerus -65.0513 0.294368 -69.0026
rradius 49.1308
rwrist -0.303431
rhand -11.1322 -6.80802
rfingers 7.12502
rthumb 14.8931 -36.2527
lclavicle 1.10822e-014 7.95139e-015
lhumerus -5.90583 -11.5074 84.2659
lradius 72.1783
lwrist 5.26056
lhand -10.6256 9.11905
lfingers 7.12502
lthumb 15.3811 38.5269
rfemur -83.2487 -8.89271 19.7119
rtibia 78.0872
rfoot 917.407 -0.470804
rtoes 18.8362
lfemur 3.77933 -6.89659 -28.4734
ltibia 20.1498
lfoot 1429.04 -2.49726
ltoes -2.63996
647
root -41.0276 18.0993 3.04711 1361.13 -86.8263 -1363.65
lowerback 5.15418 -4.15158 -3.40792
upperback -1.78304 -5.70902 1.87548
thorax -4.20798 -2.72192 4.32358
lowerneck -21.8381 -0.819124 -3.82048
upperneck 18.7759 -0.800719 3.69937
head 9.56612 -0.232726 1.80243
rclavicle -3.65764e-014 -2.06736e-014
rhumerus -65.3315 0.441213 -68.8149
rradius 49.064
rwrist -0.240093
rhand -11.0991 -6.75534
rfingers 7.12502
rthumb 14.925 -36.1976
lclavicle -3.65764e-014 -2.06736e-014
lhumerus -5.266 -11.4218 83.7557
lradius 72.5667
lwrist 5.34435
lhand -10.5448 9.08001
lfingers 7.12502
lthumb 15.459 38.4819
rfemur -84.1333 -8.58281 19.7566
rtibia 79.7829
rfoot 917.517 -1.28148
rtoes 18.3743
lfemur 4.31008 -6.9308 -28.3824
ltibia 20.1368
lfoot 1429.02 -2.62257
ltoes -3.37046
648
root -41.1765 18.1026 3.0294 1360.88 -86.8407 -1363.38
lowerback 5.2587 -4.19311 -3.43601
upperback -1.7558 -5.76829 1.90209
thorax -4.22754 -2.75009 4.37869
lowerneck -21.8706 -0.800364 -3.79307
upperneck 18.6491 -0.788257 3.74513
head 9.52686 -0.217994 1.81456
rclavicle 4.08006e-014 -1.11319e-014
rhumerus -65.5292 0.584273 -68.6948
rradius 48.9828
rwrist -0.198451
rhand -11.0805 -6.69688
rfingers 7.12502
rthumb 14.943 -36.1378
lclavicle 4.08006e-014 -1.11319e-014
lhumerus -4.70757 -11.3213 83.2854
lradius 72.9447
lwrist 5.45883
lhand -10.477 9.05204
lfingers 7.12502
lthumb 15.5243 38.4488
rfemur -84.8529 -8.32633 19.7497
rtibia 81.7905
rfoot 917.107 -16.7871
rtoes 17.8654
lfemur 4.76159 -6.95486 -28.3188
ltibia 20.196
lfoot 1428.99 -2.82418
ltoes -4.11569
649
root -41.3251 18.1036 3.01196 1360.81 -86.8069 -1363.27
lowerback 5.34268 -4.23617 -3.49943
upperback -1.73874 -5.83226 1.91024
thorax -4.24402 -2.77973 4.43336
lowerneck -21.8867 -0.784132 -3.77395
upperneck 18.5176 -0.779075 3.79907
head 9.48324 -0.204682 1.83029
rclavicle 5.99336e-014 -1.35174e-014
rhumerus -65.6594 0.717405 -68.6315
rradius 48.8943
rwrist -0.170652
rhand -11.0647 -6.65207
rfingers 7.12502
rthumb 14.9581 -36.0919
lclavicle 5.99336e-014 -1.35174e-014
lhumerus -4.23656 -11.2132 82.8646
lradius 73.3059
lwrist 5.56661
lhand -10.4205 9.03209
lfingers 7.12502
lthumb 15.5787 38.4247
rfemur -85.4041 -8.13369 19.6847
rtibia 84.0963
rfoot 916.771 -32.2873
rtoes 17.4721
lfemur 5.14519 -6.98121 -28.2944
ltibia 20.3143
lfoot 1428.97 -3.0926
ltoes -4.85871
650
root -41.4731 18.1023 2.9948 1360.93 -86.7303 -1363.31
lowerback 5.40475 -4.28061 -3.59401
upperback -1.72665 -5.90032 1.90205
thorax -4.25143 -2.81091 4.48696
lowerneck -21.9039 -0.771694 -3.76399
upperneck 18.3883 -0.774651 3.86364
head 9.44096 -0.193096 1.85055
rclavicle 5.59082e-014 -3.97569e-015
rhumerus -65.7137 0.838658 -68.6239
rradius 48.8011
rwrist -0.150297
rhand -11.0542 -6.60693
rfingers 7.12502
rthumb 14.9683 -36.046
lclavicle 5.59082e-014 -3.97569e-015
lhumerus -3.83707 -11.1028 82.4882
lradius 73.6407
lwrist 5.64417
lhand -10.3739 9.01388
lfingers 7.12502
lthumb 15.6235 38.403
rfemur -85.7903 -7.99855 19.568
rtibia 86.2797
rfoot 916.466 -47.7746
rtoes 17.2455
lfemur 5.46813 -7.01522 -28.3066
ltibia 20.4819
lfoot 1428.94 -3.40752
ltoes -5.61154
651
root -41.6216 18.0986 2.9781 1361.22 -86.6167 -1363.52
lowerback 5.45584 -4.32663 -3.71266
upperback -1.7202 -5.97254 1.87945
thorax -4.25703 -2.8436 4.53855
lowerneck -21.9275 -0.759036 -3.74876
upperneck 18.2755 -0.769743 3.91875
head 9.40559 -0.182142 1.86689
rclavicle -5.41688e-015 8.74653e-015
rhumerus -65.7037 0.953097 -68.6669
rradius 48.7072
rwrist -0.128054
rhand -11.0522 -6.55576
rfingers 7.12502
rthumb 14.9702 -35.9947
lclavicle -5.41688e-015 8.74653e-015
lhumerus -3.51455 -10.9982 82.1571
lradius 73.9426
lwrist 5.68108
lhand -10.3407 9.00161
lfingers 7.12502
lthumb 15.6555 38.3882
rfemur -85.9967 -7.91725 19.3982
rtibia 87.9762
rfoot 916.052 -63.2632
rtoes 17.1366
lfemur 5.76564 -7.06211 -28.3582
ltibia 20.6715
lfoot 1428.92 -3.74722
ltoes -6.37169
